<?xml version="1.0" encoding="utf-8"?>
<svg version="1.1" id="cube" xmlns="http://www.w3.org/2000/svg" x="0px" y="0px"
	 viewBox="0 0 55.6 44.6" width="40">
<style type="text/css">
	.st0 {fill:#FFFFFF;}
</style>
<path class="st0" d="M54.7,39.7l-2-4.9c-0.3-0.7-1-1-1.7-0.7c-0.7,0.3-1,1-0.7,1.7l0.8,2L46.6,36V16.6c0-0.5-0.3-1-0.9-1.2L29,9.3
	V5.1l1.5,1.5C30.8,6.8,31.1,7,31.5,7c0.3,0,0.7-0.1,0.9-0.4c0.5-0.5,0.5-1.3,0-1.8L28.7,1c-0.5-0.5-1.3-0.5-1.8,0l-3.7,3.7
	c-0.5,0.5-0.5,1.3,0,1.8c0.5,0.5,1.3,0.5,1.8,0l1.5-1.5v4.3L9.7,15.4c-0.5,0.2-0.9,0.7-0.9,1.2V36l-4.4,1.8l0.8-2
	c0.3-0.7,0-1.4-0.7-1.7c-0.7-0.3-1.4,0-1.7,0.7l-2,4.9c-0.1,0.3-0.1,0.7,0,1C1,41,1.2,41.3,1.5,41.4l4.9,2c0.2,0.1,0.3,0.1,0.5,0.1
	c0.5,0,1-0.3,1.2-0.8c0.3-0.7,0-1.4-0.7-1.7l-2-0.8l4.7-1.9l17.2,6.3c0,0,0.2,0.1,0.4,0.1c0.2,0,0.4-0.1,0.4-0.1l17.2-6.3l4.7,1.9
	l-2,0.8c-0.7,0.3-1,1-0.7,1.7c0.2,0.5,0.7,0.8,1.2,0.8c0.2,0,0.3,0,0.5-0.1l4.9-2c0.3-0.1,0.6-0.4,0.7-0.7
	C54.8,40.4,54.8,40,54.7,39.7L54.7,39.7z M26.4,41.5l-12.8-4.6l12.8-5.2V41.5z M26.4,28.8l-15,6V18.6l15,6V28.8z M26.4,21.9
	l-12.8-5.1l12.8-4.6V21.9z M29,12.1l12.8,4.6L29,21.9V12.1z M29,41.5v-9.8l12.8,5.2L29,41.5z M44,34.9l-15-6v-4.2l15-6V34.9z
	 M44,34.9"/>
</svg>
